<?xml version="1.0" encoding="UTF-8" standalone="no"?>
<svg
   fill-opacity="1"
   color-rendering="auto"
   color-interpolation="auto"
   text-rendering="auto"
   stroke="#000000"
   stroke-linecap="square"
   stroke-miterlimit="10"
   shape-rendering="auto"
   stroke-opacity="1"
   fill="#000000"
   stroke-dasharray="none"
   font-weight="normal"
   stroke-width="1"
   font-family="Dialog"
   font-style="normal"
   stroke-linejoin="miter"
   font-size="12px"
   stroke-dashoffset="0"
   image-rendering="auto"
   version="1.1"
   id="svg9"
   sodipodi:docname="herb.svg"
   width="244.9688"
   height="252.70309"
   inkscape:version="1.2.2 (b0a8486541, 2022-12-01)"
   xmlns:inkscape="http://www.inkscape.org/namespaces/inkscape"
   xmlns:sodipodi="http://sodipodi.sourceforge.net/DTD/sodipodi-0.dtd"
   xmlns="http://www.w3.org/2000/svg"
   xmlns:svg="http://www.w3.org/2000/svg">
  <sodipodi:namedview
     id="namedview11"
     pagecolor="#ffffff"
     bordercolor="#000000"
     borderopacity="0.25"
     inkscape:showpageshadow="2"
     inkscape:pageopacity="0.0"
     inkscape:pagecheckerboard="0"
     inkscape:deskcolor="#d1d1d1"
     showgrid="false"
     inkscape:zoom="1.3022827"
     inkscape:cx="97.905007"
     inkscape:cy="138.60277"
     inkscape:window-width="1596"
     inkscape:window-height="856"
     inkscape:window-x="0"
     inkscape:window-y="0"
     inkscape:window-maximized="1"
     inkscape:current-layer="svg9" />
  <!--Unicode Character 'HERB' (U+1F33F)-->
  <defs
     id="genericDefs" />
  <g
     id="g7"
     transform="translate(-11.5312,-154.9688)">
    <g
       id="g5">
      <path
         d="m 256.5,234.5625 q 0,10.8281 -10.5469,20.6719 -9.2812,8.4375 -20.8125,11.9531 -3.7968,0.1406 -11.1094,1.5469 -0.9843,0.7031 -3.3124,1.625 -2.3126,0.9062 -11.3126,0.9062 -4.9218,0 -18.9843,-4.2187 -2.8125,-0.1407 -8.2969,-0.9844 -7.875,-2.1094 -18,-2.1094 -10.6875,0 -13.6406,0.8438 -19.2656,5.4843 -57.7969,40.7812 -11.5313,9.4219 -32.625,30.2344 -3.5156,5.9063 -10.6875,17.5781 h 0.4219 q 1.6875,0 6.4687,-2.6718 6.0469,-3.375 6.6094,-3.5157 2.6719,-1.125 10.2656,-1.125 1.8282,0 5.2032,-1.1875 3.375,-1.2031 5.2031,-1.2031 2.1093,0 6.1093,0.8437 4.0157,0.8438 6.125,0.8438 1.6876,0 3.7969,-0.1406 1.6875,-1.125 4.7813,-3.6563 1.9687,-2.9531 6.4687,-8.7187 8.5781,-9.5625 19.4063,-12.5156 4.5,-1.2657 22.9218,-2.9532 3.6563,-0.7031 11.1094,-1.8281 11.8125,-0.9844 35.5782,-4.5 1.6874,-0.1406 5.0624,-0.8437 1.9688,-0.5626 11.1094,-5.3438 8.7188,-4.6406 9.5625,-4.6406 3.6563,0 3.6563,3.9375 0,2.25 -8.0156,22.6406 -0.5626,1.5469 -9.7032,15.6094 -6.0468,9.4219 -13.0781,13.9219 -2.1094,0.8437 -6.1875,2.5312 -18.4219,8.2969 -34.4531,8.2969 -17.7188,0 -26.4375,-1.9688 -7.0313,-1.5469 -13.9219,-5.4843 -4.0781,-2.9532 -8.2969,-5.8282 Q 94.9219,351 89.2969,351 q -1.2657,0 -3.7969,0.2188 -2.5312,0.2031 -3.7969,0.2031 -1.9687,0 -5.9062,-0.1407 -3.9375,-0.1406 -5.9063,-0.1406 -7.1718,0 -25.7344,7.7344 -8.1562,3.375 -12.375,14.9062 -1.8281,5.0626 -4.5,19.8282 -0.1406,3.9375 -1.5468,10.5468 -1.5469,3.5157 -5.3438,3.5157 -2.8125,0 -4.6406,-4.6407 -1.4062,-0.4218 -4.2188,-2.1093 0.2813,-19.4063 10.125,-42.6094 3.375,-7.7344 12.7969,-19.5469 5.3438,-5.7656 10.6875,-11.5312 7.0313,-8.0156 7.0313,-13.0782 0,-5.625 -7.1719,-10.9687 -3.2344,-1.4063 -9.4219,-4.7813 -6.0469,-3.9374 -12.2343,-11.5312 -6.75,-8.2969 -7.875,-14.625 -0.7032,-3.7969 -0.7032,-10.6875 0,-19.5469 6.0469,-35.1563 0.4219,-2.8124 1.4063,-8.2968 1.5468,-4.5 4.5,-13.5 l 2.25,-2.3906 h 4.6406 q 0.5625,7.0312 2.5312,18 5.2032,7.1718 13.5,19.4062 7.5938,12.7969 9.8438,18.9844 2.8125,8.4375 2.8125,21.2344 0,8.7187 -1.5469,11.9531 -0.4219,0.8437 -3.6562,5 -3.2344,4.1406 -3.2344,4.8437 0,0.7032 2.6718,5.9063 2.9532,5.9062 3.2344,6.6093 5.9063,-5.0624 11.3906,-9 2.6719,-1.8281 3.5157,-4.0781 1.6875,-3.9375 2.1093,-4.6406 1.9688,-1.9687 5.3438,-6.0469 0.5625,-2.3906 1.9688,-7.1718 1.8281,-2.6719 4.6406,-8.4376 2.9531,-9.2812 2.9531,-20.25 -8.1563,-2.1093 -8.1563,-2.1093 -4.9218,-1.8281 -6.75,-4.6407 -3.5156,-5.4843 -3.5156,-11.5312 0,-8.1562 3.0938,-22.9219 3.2344,-15.6093 6.6094,-22.0781 2.3906,-4.5 10.5468,-16.1719 h 3.0938 q -0.1406,7.875 -0.1406,6.6094 0,6.1875 1.4062,10.125 0.4219,1.2656 4.0781,7.5937 3.9375,6.75 10.125,20.8126 0.8438,2.8124 0.8438,12.9374 0,13.7813 -9,20.6719 -1.5469,0.4219 -4.3594,2.8125 -0.9844,5.4844 -2.5313,13.3594 -2.1093,9.2812 -6.0468,16.875 v 0.5625 q 17.4375,-15.1875 27,-22.0781 9.9844,-5.4844 27.5625,-18.9844 3.5156,-3.6562 3.5156,-10.6875 0,-1.5469 -5.5625,-6.9531 -5.5469,-5.4219 -5.5469,-7.3906 v -23.7657 q 0,-0.4219 8.4375,-25.3125 2.25,-2.3906 4.0782,-2.3906 1.125,0 3.6562,4.6406 4.3594,7.5938 8.8594,15.1875 2.8125,6.0469 2.8125,17.5781 0,7.875 -5.3438,22.0782 -0.7031,1.8281 -4.7812,7.1718 l 0.4219,3.6563 21.375,-19.9687 q -1.9688,-4.0782 -3.9376,-8.0157 -1.125,-2.8125 -1.125,-10.5469 0,-6.6093 4.1407,-14.625 4.1562,-8.0156 9.3593,-12.375 6.75,-3.9374 18.7032,-13.0781 0.1406,-0.1406 2.25,-4.2187 1.2656,-2.3906 3.9375,-2.3906 2.8125,0 2.8125,4.0781 0,9.8437 -0.7032,15.0469 -0.1406,1.125 -1.125,3.7343 -0.9843,2.5938 -0.9843,4 0,1.5469 0.1406,4.6407 0,2.9531 0,4.5 0,10.2656 -6.3281,17.1562 -3.5156,3.6562 -15.0469,10.9688 -0.2813,0.1406 -4.7813,5.3437 -16.7343,19.125 -40.7812,33.1875 0.5625,0.2812 1.8281,0.2812 2.25,0 6.75,-0.8437 4.5,-0.8437 6.75,-0.8437 6.1875,0 12.6563,1.6874 7.0312,-14.625 22.5,-20.1093 Q 205.3125,234 225,234 q 2.6719,0 8.0781,0.2812 5.4219,0.2813 8.0938,0.2813 2.1093,0 6.1093,-1.4063 4.0157,-1.4062 6.125,-1.4062 3.0938,0 3.0938,2.8125 z m -55.125,-56.6719 h -2.1094 q -0.9844,2.6719 -8.0156,11.8125 -6.0469,7.7344 -6.0469,12.375 v 4.5 h 2.1094 q 1.4063,-1.4062 2.25,-4.5 0.9844,-4.0781 1.4063,-4.9219 0.1406,-0.2812 10.4062,-19.2656 z m 22.7812,72.7032 v -1.9688 q -7.875,-2.3906 -10.125,-2.3906 h -2.6718 q -15.3282,0 -29.3906,10.8281 -0.9844,0.8437 -1.125,1.8281 l 1.2656,1.2656 h 3.375 q 0.2812,0 8.9218,-4.7812 8.6563,-4.7812 12.3126,-4.7812 z M 154.125,212.4844 v -4.3594 q 0,-1.9688 -4.6406,-14.2031 h -2.1094 v 5.2031 q 0,0.9844 0.8438,2.8125 0.8437,1.8281 0.8437,2.8125 v 20.6719 q 1.125,1.125 2.1094,1.2656 2.9531,-7.1719 2.9531,-14.2031 z m -53.5781,25.4531 q 0,-8.0156 -6.75,-27.2813 h -2.1094 v 1.8282 q 0,0.8437 1.4063,2.3906 0.1406,1.8281 1.0468,5.9062 0.9219,4.0782 0.9219,6.3282 v 23.4844 q 0.4219,0 1.4687,0.1406 1.0626,0.1406 1.625,0.1406 0.7032,0 1.2657,-0.2812 1.125,-7.1719 1.125,-12.6563 z m 49.0781,100.4063 -1.125,-1.125 q -19.4062,-2.3907 -18.7031,-2.3907 -8.8594,0 -18.4219,2.3907 -6.8906,1.6874 -9.7031,9 0.8437,0.8437 2.5312,0.8437 1.4063,0 5.4844,-2.3906 4.9219,-2.8125 5.625,-3.0938 5.9063,-2.3906 14.2031,-2.3906 2.1094,0 6.1094,0.5625 4.0156,0.5625 6.125,0.5625 6.0469,0 7.875,-1.9687 z M 45.4219,278.8594 q 0,-5.0625 -4.0781,-17.0156 -4.0782,-11.9532 -7.3126,-15.0469 -0.8437,1.125 -1.8281,1.2656 3.0938,11.9531 10.5469,35.4375 h 2.1094 q 0.5625,-1.8281 0.5625,-4.6406 z"
         stroke="none"
         id="path3" />
    </g>
  </g>
</svg>
